<svg width="428" height="372" viewBox="0 0 428 372" fill="none" xmlns="http://www.w3.org/2000/svg">
<path d="M2.06073 164.182L35.0607 197.182L68.0607 164.182C69.6607 155.382 64.3941 156.182 61.5607 157.682L41.5607 178.682C41.5607 157.082 47.8941 136.016 51.0607 128.182C80.0607 55.6824 126.061 34.1824 160.061 21.1824C194.061 8.18243 252.061 5.18243 308.061 40.6824C352.861 69.0824 374.394 116.182 379.561 136.182C388.361 149.382 391.894 140.349 392.561 134.182C370.561 62.1824 317.061 24.6825 265.061 7.68246C223.461 -5.91754 172.061 4.34913 151.561 11.1825C51.5607 50.3825 28.5607 139.182 29.5607 178.682L9.06073 157.682C-0.539272 153.682 0.394061 160.349 2.06073 164.182Z" fill="white" stroke="white"/>
<path d="M425.5 208L392.5 175L359.5 208C357.9 216.8 363.167 216 366 214.5L386 193.5C386 215.1 379.667 236.167 376.5 244C347.5 316.5 301.5 338 267.5 351C233.5 364 175.5 367 119.5 331.5C74.7 303.1 53.1667 256 48 236C39.2 222.8 35.6667 231.833 35 238C57 310 110.5 347.5 162.5 364.5C204.1 378.1 255.5 367.833 276 361C376 321.8 399 233 398 193.5L418.5 214.5C428.1 218.5 427.167 211.833 425.5 208Z" fill="white" stroke="white"/>
<path d="M212 299.7V67.6997L218 81.1997V284.2C223.6 299 247 297.7 258 295.2C283.2 292.8 299.167 271.866 304 261.7C317.6 234.5 308.667 206.366 302.5 195.7C305.7 181.7 301.167 170.2 298.5 166.2C292.9 175.8 285.833 180.866 283 182.2C270.6 183.4 273.833 175.7 277 171.7C295.4 160.1 292.333 138.866 288.5 129.7C286.1 118.1 275.833 107.533 271 103.7C272.2 94.4997 265.167 84.8663 261.5 81.1997C247.1 65.1997 230.833 68.1997 224.5 71.6997L217.5 62.1997C227.9 55.3997 240.5 56.6997 245.5 58.1997C272.3 64.9997 281.667 88.033 283 98.6997C303.4 117.1 304.5 141.7 302.5 151.7C314.9 162.9 316 185.7 315 195.7C323 206.9 323.667 225.7 323 233.7C325 260.1 307.167 281.7 298 289.2C260.4 320.8 225 309.366 212 299.7Z" fill="white" stroke="white"/>
<path d="M212 67.6997L217.5 62.1997C222.167 64.033 230.1 68.4997 224.5 71.6997C218.9 74.8997 218.167 81.033 218.5 83.6997L212 67.6997Z" fill="white" stroke="white"/>
<path d="M223 241.2C237.8 228.4 231.833 211.866 227 205.2C229.4 198 234 200.533 236 202.7C243.2 209.5 242.667 223.866 241.5 230.2C256.3 232.6 261.333 241.866 262 246.2C263.6 256.6 257.333 253.533 254 250.7C253 241.7 239.5 236.2 237.5 240.2C235.9 243.4 232.167 246.533 230.5 247.7C221.7 251.3 221.833 244.866 223 241.2Z" fill="white" stroke="white"/>
<path d="M281.591 192.068C262.139 189.94 257.659 172.944 257.85 164.712C251.785 160.149 249.438 164.847 249.023 167.766C246.96 177.452 255.559 188.974 260.117 193.523C249.299 203.905 250.42 214.391 252.333 218.336C256.924 227.804 260.339 221.721 261.473 217.495C257.184 209.52 265.171 197.325 269.089 199.481C272.223 201.206 277.076 201.664 279.11 201.678C288.398 199.642 284.634 194.423 281.591 192.068Z" fill="white" stroke="white"/>
<path d="M261.439 92.6018C245.736 98.7904 244.743 114.531 246.21 121.627C241.934 126.938 239.251 123.388 238.445 120.949C235.203 113.01 240.463 101.098 243.499 96.1347C232.927 89.5464 232.185 80.2025 233.135 76.3541C235.415 67.118 239.199 71.6311 240.806 75.0423C238.537 82.9163 247.062 91.7089 249.95 88.9642C252.261 86.7685 256.19 85.2877 257.865 84.8217C265.848 84.5135 263.574 89.88 261.439 92.6018Z" fill="white" stroke="white"/>
<path d="M225 138.7C228.6 131.1 232.833 135.533 234.5 138.7C231.7 148.3 238 151.366 241.5 151.7C247.1 156.1 243.167 159.866 240.5 161.2C228 159.7 220.5 148.2 225 138.7Z" fill="white" stroke="white"/>
<path d="M244.5 135.2C260.9 126.4 276.333 136.866 282 143.2C282.8 149.6 278 149.533 275.5 148.7C267.1 138.7 253.667 140.866 248 143.2C239.6 142.8 242.167 137.7 244.5 135.2Z" fill="white" stroke="white"/>
<path d="M246 270.7C278.8 267.9 285.333 245.866 284.5 235.2C289.3 226.8 292.833 231.033 294 234.2C290.4 272.2 261.167 279.7 247 278.7C239 276.3 243 272.366 246 270.7Z" fill="white" stroke="white"/>
<path d="M212 299.5V67.5L206 81V284C200.4 298.8 177 297.5 166 295C140.8 292.6 124.833 271.667 120 261.5C106.4 234.3 115.333 206.167 121.5 195.5C118.3 181.5 122.833 170 125.5 166C131.1 175.6 138.167 180.667 141 182C153.4 183.2 150.167 175.5 147 171.5C128.6 159.9 131.667 138.667 135.5 129.5C137.9 117.9 148.167 107.333 153 103.5C151.8 94.3 158.833 84.6666 162.5 81C176.9 65 193.167 68 199.5 71.5L206.5 62C196.1 55.2 183.5 56.5 178.5 58C151.7 64.8 142.333 87.8333 141 98.5C120.6 116.9 119.5 141.5 121.5 151.5C109.1 162.7 108 185.5 109 195.5C101 206.7 100.333 225.5 101 233.5C99 259.9 116.833 281.5 126 289C163.6 320.6 199 309.167 212 299.5Z" fill="white" stroke="white"/>
<path d="M212 67.5L206.5 62C201.833 63.8333 193.9 68.3 199.5 71.5C205.1 74.7 205.833 80.8333 205.5 83.5L212 67.5Z" fill="white" stroke="white"/>
<path d="M201 241C186.2 228.2 192.167 211.667 197 205C194.6 197.8 190 200.333 188 202.5C180.8 209.3 181.333 223.667 182.5 230C167.7 232.4 162.667 241.667 162 246C160.4 256.4 166.667 253.333 170 250.5C171 241.5 184.5 236 186.5 240C188.1 243.2 191.833 246.333 193.5 247.5C202.3 251.1 202.167 244.667 201 241Z" fill="white" stroke="white"/>
<path d="M142.409 191.869C161.861 189.74 166.341 172.744 166.15 164.512C172.215 159.949 174.562 164.647 174.977 167.566C177.04 177.253 168.441 188.774 163.883 193.324C174.701 203.705 173.58 214.191 171.667 218.136C167.076 227.604 163.661 221.521 162.527 217.296C166.816 209.32 158.829 197.126 154.911 199.282C151.777 201.007 146.924 201.465 144.89 201.478C135.602 199.443 139.366 194.224 142.409 191.869Z" fill="white" stroke="white"/>
<path d="M162.561 92.4021C178.264 98.5907 179.257 114.331 177.79 121.428C182.066 126.739 184.749 123.188 185.555 120.75C188.797 112.81 183.537 100.898 180.501 95.9349C191.073 89.3467 191.815 80.0028 190.865 76.1544C188.585 66.9183 184.801 71.4314 183.194 74.8425C185.463 82.7166 176.938 91.5091 174.05 88.7645C171.739 86.5688 167.81 85.088 166.135 84.622C158.152 84.3137 160.426 89.6803 162.561 92.4021Z" fill="white" stroke="white"/>
<path d="M199 138.5C195.4 130.9 191.167 135.333 189.5 138.5C192.3 148.1 186 151.167 182.5 151.5C176.9 155.9 180.833 159.667 183.5 161C196 159.5 203.5 148 199 138.5Z" fill="white" stroke="white"/>
<path d="M179.5 135C163.1 126.2 147.667 136.667 142 143C141.2 149.4 146 149.333 148.5 148.5C156.9 138.5 170.333 140.667 176 143C184.4 142.6 181.833 137.5 179.5 135Z" fill="white" stroke="white"/>
<path d="M178 270.5C145.2 267.7 138.667 245.667 139.5 235C134.7 226.6 131.167 230.833 130 234C133.6 272 162.833 279.5 177 278.5C185 276.1 181 272.167 178 270.5Z" fill="white" stroke="white"/>
</svg>
